<svg width="17" height="16" viewBox="0 0 17 16" fill="none" xmlns="http://www.w3.org/2000/svg">
<g id="instagram (1) 1" clip-path="url(#clip0_2157_49985)">
<g id="Group">
<g id="Group_2">
<path id="Vector" d="M13.304 2.93066C13.0933 2.93066 12.9219 3.10209 12.9219 3.31275C12.9219 3.5234 13.0933 3.69483 13.304 3.69483C13.5146 3.69483 13.686 3.52343 13.686 3.31275C13.686 3.10206 13.5146 2.93066 13.304 2.93066Z" fill="white"/>
</g>
</g>
<g id="Group_3">
<g id="Group_4">
<path id="Vector_2" d="M8.73104 4.50098C6.86329 4.50098 5.34375 6.02052 5.34375 7.88827C5.34375 9.75602 6.86329 11.2756 8.73104 11.2756C10.5988 11.2756 12.1184 9.75605 12.1184 7.8883C12.1184 6.02055 10.5988 4.50098 8.73104 4.50098Z" fill="white"/>
</g>
</g>
<g id="Group_5">
<g id="Group_6">
<path id="Vector_3" d="M12.2832 0.0166016H5.17378C2.79481 0.0166016 0.859375 1.95204 0.859375 4.33104V11.4405C0.859375 13.8195 2.79481 15.7549 5.17378 15.7549H12.2832C14.6622 15.7549 16.5976 13.8194 16.5976 11.4405V4.33104C16.5976 1.95204 14.6622 0.0166016 12.2832 0.0166016ZM8.7285 12.2024C6.34825 12.2024 4.41183 10.266 4.41183 7.88573C4.41183 5.50547 6.34828 3.56908 8.7285 3.56908C11.1087 3.56908 13.0452 5.5055 13.0452 7.88573C13.0452 10.266 11.1087 12.2024 8.7285 12.2024ZM13.3034 4.62238C12.5802 4.62238 11.9919 4.03404 11.9919 3.31088C11.9919 2.58772 12.5802 1.99935 13.3034 1.99935C14.0265 1.99935 14.6149 2.58769 14.6149 3.31085C14.6149 4.03401 14.0265 4.62238 13.3034 4.62238Z" fill="white"/>
</g>
</g>
</g>
<defs>
<clipPath id="clip0_2157_49985">
<rect width="15.7383" height="15.7383" fill="white" transform="translate(0.859375 0.0166016)"/>
</clipPath>
</defs>
</svg>
