<svg width="16" height="17" viewBox="0 0 16 17" fill="none" xmlns="http://www.w3.org/2000/svg">
<path d="M11.5547 0.718262H4.44526C2.0663 0.718262 0.130859 2.6537 0.130859 5.0327V12.1421C0.130859 14.5211 2.0663 16.4565 4.44526 16.4565H11.5547C13.9337 16.4565 15.8691 14.5211 15.8691 12.1421V5.0327C15.8691 2.6537 13.9337 0.718262 11.5547 0.718262ZM7.99999 12.9041C5.61973 12.9041 3.68331 10.9676 3.68331 8.58739C3.68331 6.20713 5.61976 4.27074 7.99999 4.27074C10.3802 4.27074 12.3167 6.20716 12.3167 8.58739C12.3167 10.9676 10.3802 12.9041 7.99999 12.9041ZM12.5749 5.32404C11.8517 5.32404 11.2634 4.7357 11.2634 4.01254C11.2634 3.28938 11.8517 2.70101 12.5749 2.70101C13.298 2.70101 13.8864 3.28935 13.8864 4.01251C13.8864 4.73567 13.298 5.32404 12.5749 5.32404Z" fill="#523D34"/>
</svg>
