<?xml version="1.0" encoding="UTF-8"?>
<svg version="1.1" xmlns="http://www.w3.org/2000/svg" width="600" height="100">
<path d="M0 0 C0.90041016 -0.00257812 1.80082031 -0.00515625 2.72851562 -0.0078125 C4.14487305 0.00378906 4.14487305 0.00378906 5.58984375 0.015625 C6.50701172 0.00789063 7.42417969 0.00015625 8.36914062 -0.0078125 C22.4053733 0.03197838 22.4053733 0.03197838 27.90234375 3.96484375 C31.43157287 8.28305918 33.83952495 11.43824254 33.52734375 17.265625 C30.90725641 24.57566867 30.90725641 24.57566867 27.52734375 26.265625 C28.29046875 26.78125 29.05359375 27.296875 29.83984375 27.828125 C33.10917821 30.79333532 34.24245845 33.05405653 35.52734375 37.265625 C35.28520457 40.89771266 34.67489901 43.82295921 33.52734375 47.265625 C32.86734375 47.265625 32.20734375 47.265625 31.52734375 47.265625 C31.30046875 47.86375 31.07359375 48.461875 30.83984375 49.078125 C29.11212684 51.95765318 27.56534704 52.84789013 24.52734375 54.265625 C18.21131598 55.56919931 12.06539016 55.21047769 5.65234375 54.890625 C4.5953125 54.84679687 3.53828125 54.80296875 2.44921875 54.7578125 C-5.34093876 54.39734249 -5.34093876 54.39734249 -6.47265625 53.265625 C-6.57640583 51.68046922 -6.61117514 50.09073034 -6.61791992 48.50219727 C-6.62429977 47.48766983 -6.63067963 46.4731424 -6.63725281 45.4278717 C-6.63836563 44.32374435 -6.63947845 43.219617 -6.640625 42.08203125 C-6.6456176 40.39327126 -6.6456176 40.39327126 -6.65071106 38.6703949 C-6.65578519 36.28376679 -6.65811924 33.89713155 -6.65795898 31.51049805 C-6.66014476 27.84737526 -6.67829365 24.18455378 -6.69726562 20.52148438 C-6.70019951 18.20833437 -6.70218434 15.89518292 -6.703125 13.58203125 C-6.71031052 12.47992813 -6.71749603 11.37782501 -6.72489929 10.24232483 C-6.72182266 9.22464523 -6.71874603 8.20696564 -6.71557617 7.15844727 C-6.71700119 6.25989517 -6.71842621 5.36134308 -6.71989441 4.43556213 C-6.22612166 0.10186286 -3.75966699 0.01044456 0 0 Z M-0.47265625 6.265625 C-0.47265625 12.205625 -0.47265625 18.145625 -0.47265625 24.265625 C2.92365847 24.34670413 6.31802991 24.40616444 9.71484375 24.453125 C11.1544043 24.49083008 11.1544043 24.49083008 12.62304688 24.52929688 C19.58999992 24.65742167 19.58999992 24.65742167 25.52734375 21.265625 C27.36440912 17.94141148 28.10778316 15.03848115 27.52734375 11.265625 C25.27955835 8.47527071 23.95004359 7.40652495 20.52734375 6.265625 C18.90014893 6.18418645 17.26982656 6.1580948 15.640625 6.16796875 C14.70283203 6.17119141 13.76503906 6.17441406 12.79882812 6.17773438 C11.82236328 6.18611328 10.84589844 6.19449219 9.83984375 6.203125 C8.85177734 6.20763672 7.86371094 6.21214844 6.84570312 6.21679688 C4.40622417 6.2285818 1.96677634 6.24651717 -0.47265625 6.265625 Z M8.02734375 29.640625 C5.22234375 29.846875 2.41734375 30.053125 -0.47265625 30.265625 C-0.47265625 36.865625 -0.47265625 43.465625 -0.47265625 50.265625 C14.24895083 51.51362744 14.24895083 51.51362744 27.52734375 46.265625 C29.85217438 42.68953203 29.66830569 40.17024708 28.98828125 36.09765625 C28.59493137 34.19122506 28.59493137 34.19122506 27.46484375 32.390625 C21.34904444 28.83951572 14.81809815 29.08903398 8.02734375 29.640625 Z " fill="#4C3831" transform="translate(6.47265625,20.734375)"/>
<path d="M0 0 C1.3097303 -0.01710022 1.3097303 -0.01710022 2.6459198 -0.0345459 C4.49607489 -0.05345653 6.3462975 -0.06651812 8.1965332 -0.07421875 C11.02219971 -0.09360749 13.84494053 -0.15561641 16.66992188 -0.21875 C18.46743063 -0.23181296 20.26496021 -0.24231277 22.0625 -0.25 C22.90537064 -0.2746936 23.74824127 -0.29938721 24.61665344 -0.3248291 C30.34884857 -0.28149674 30.34884857 -0.28149674 32.90951538 1.71606445 C36.23046875 5.54268218 36.23046875 5.54268218 36.23046875 8.40625 C36.89046875 8.40625 37.55046875 8.40625 38.23046875 8.40625 C39.43554688 9.96679687 39.43554688 9.96679687 40.76171875 12.125 C41.24253906 12.89199219 41.72335937 13.65898438 42.21875 14.44921875 C43.73046875 16.90625 43.73046875 16.90625 45.2421875 19.36328125 C45.72300781 20.13027344 46.20382812 20.89726563 46.69921875 21.6875 C47.13685547 22.39970703 47.57449219 23.11191406 48.02539062 23.84570312 C48.42306641 24.36068359 48.82074219 24.87566406 49.23046875 25.40625 C49.89046875 25.40625 50.55046875 25.40625 51.23046875 25.40625 C52.48570251 23.99010149 52.48570251 23.99010149 53.69140625 22.1171875 C54.16320312 21.42238281 54.635 20.72757813 55.12109375 20.01171875 C55.6109375 19.27566406 56.10078125 18.53960937 56.60546875 17.78125 C57.08757812 17.06839844 57.5696875 16.35554688 58.06640625 15.62109375 C60.77789647 11.61072021 60.77789647 11.61072021 63.40332031 7.54394531 C64.29809799 6.13336438 65.25792554 4.76438303 66.23046875 3.40625 C66.89046875 3.40625 67.55046875 3.40625 68.23046875 3.40625 C68.56046875 2.41625 68.89046875 1.42625 69.23046875 0.40625 C70.55046875 0.73625 71.87046875 1.06625 73.23046875 1.40625 C72.2030018 7.05936169 68.43701635 11.47601264 65.29296875 16.15625 C64.64650391 17.13980469 64.00003906 18.12335937 63.33398438 19.13671875 C62.40295898 20.53083984 62.40295898 20.53083984 61.453125 21.953125 C60.88343994 22.80745117 60.31375488 23.66177734 59.72680664 24.54199219 C58.98611938 25.4647998 58.98611938 25.4647998 58.23046875 26.40625 C57.57046875 26.40625 56.91046875 26.40625 56.23046875 26.40625 C54.63948389 29.94828471 53.95232311 32.83340073 53.81640625 36.70703125 C53.77773438 37.68349609 53.7390625 38.65996094 53.69921875 39.66601562 C53.66828125 40.67341797 53.63734375 41.68082031 53.60546875 42.71875 C53.56679688 43.74548828 53.528125 44.77222656 53.48828125 45.83007812 C53.39431978 48.35529265 53.30865335 50.88050592 53.23046875 53.40625 C50.75546875 53.90125 50.75546875 53.90125 48.23046875 54.40625 C48.24207031 53.79740967 48.25367188 53.18856934 48.265625 52.5612793 C48.40178578 39.70988953 48.24432689 31.172517 39.23046875 21.40625 C37.51403935 19.07830466 35.90420048 16.68278047 34.29296875 14.28125 C31.96549685 10.67711501 31.96549685 10.67711501 29.23046875 7.40625 C23.95046875 7.07625 18.67046875 6.74625 13.23046875 6.40625 C13.23046875 22.24625 13.23046875 38.08625 13.23046875 54.40625 C11.58046875 54.40625 9.93046875 54.40625 8.23046875 54.40625 C8.23046875 38.56625 8.23046875 22.72625 8.23046875 6.40625 C2.62046875 6.40625 -2.98953125 6.40625 -8.76953125 6.40625 C-9.42953125 5.08625 -10.08953125 3.76625 -10.76953125 2.40625 C-7.71038323 -0.65289802 -4.1095137 0.04114511 0 0 Z " fill="#4F3831" transform="translate(523.76953125,20.59375)"/>
<path d="M0 0 C1.4540625 -0.01836914 1.4540625 -0.01836914 2.9375 -0.03710938 C11.70723845 -0.0547903 19.61688248 0.25784571 26.1875 6.5546875 C29.05519793 10.12224029 28.61231984 13.93097371 28.3125 18.25 C27.74632507 22.13872783 26.30665419 24.38084581 23.5 27.1875 C22.51 27.6825 22.51 27.6825 21.5 28.1875 C22.428125 28.9609375 22.428125 28.9609375 23.375 29.75 C25.99367724 32.75377683 26.59123658 35.34273167 27.5 39.1875 C27.83 40.1775 28.16 41.1675 28.5 42.1875 C28.56787176 43.68610851 28.58499964 45.18752407 28.5625 46.6875 C28.55347656 47.4609375 28.54445313 48.234375 28.53515625 49.03125 C28.52355469 49.7428125 28.51195312 50.454375 28.5 51.1875 C28.5 52.1775 28.5 53.1675 28.5 54.1875 C26.85 54.1875 25.2 54.1875 23.5 54.1875 C21.16926369 49.18905347 21.13434026 44.58793198 20.94140625 39.1484375 C20.7310524 36.22682466 20.7310524 36.22682466 19.21484375 34.3515625 C16.01818424 32.18162051 12.73326673 32.06430225 8.953125 32.08984375 C8.10878906 32.09306641 7.26445312 32.09628906 6.39453125 32.09960938 C5.52183594 32.10798828 4.64914062 32.11636719 3.75 32.125 C2.86183594 32.12951172 1.97367187 32.13402344 1.05859375 32.13867188 C-1.12767329 32.150426 -3.31380179 32.16685751 -5.5 32.1875 C-5.49476318 32.81841553 -5.48952637 33.44933105 -5.48413086 34.09936523 C-5.46342174 36.94123347 -5.45035934 39.78308588 -5.4375 42.625 C-5.42912109 43.61822266 -5.42074219 44.61144531 -5.41210938 45.63476562 C-5.40888672 46.57900391 -5.40566406 47.52324219 -5.40234375 48.49609375 C-5.39710693 49.37064209 -5.39187012 50.24519043 -5.38647461 51.14624023 C-5.5 53.1875 -5.5 53.1875 -6.5 54.1875 C-8.16617115 54.22813832 -9.83388095 54.230221 -11.5 54.1875 C-11.52526648 46.65780348 -11.54283141 39.1281178 -11.55493164 31.59838867 C-11.5599737 29.03458243 -11.56680714 26.47077909 -11.57543945 23.90698242 C-11.58751064 20.23094979 -11.59322942 16.55495502 -11.59765625 12.87890625 C-11.60281754 11.72475723 -11.60797882 10.57060822 -11.61329651 9.38148499 C-11.61337204 8.32046066 -11.61344757 7.25943634 -11.61352539 6.16625977 C-11.615746 5.22694107 -11.61796661 4.28762238 -11.62025452 3.31983948 C-11.32172354 -1.97367807 -4.03399231 0.00259922 0 0 Z M-5.5 6.1875 C-5.5 12.7875 -5.5 19.3875 -5.5 26.1875 C-2.10368528 26.26857913 1.29068616 26.32803944 4.6875 26.375 C6.12706055 26.41270508 6.12706055 26.41270508 7.59570312 26.45117188 C14.56165491 26.57471071 14.56165491 26.57471071 20.5 23.1875 C23.08496848 19.51851248 23.63222613 17.96763418 22.875 13.5 C21.34398543 9.78568551 21.34398543 9.78568551 18.5 7.1875 C15.55868109 6.20706036 13.67498335 6.07128798 10.61328125 6.08984375 C9.67548828 6.09306641 8.73769531 6.09628906 7.77148438 6.09960938 C6.79501953 6.10798828 5.81855469 6.11636719 4.8125 6.125 C3.82443359 6.12951172 2.83636719 6.13402344 1.81835938 6.13867188 C-0.62111958 6.1504568 -3.06056741 6.16839217 -5.5 6.1875 Z " fill="#503832" transform="translate(419.5,20.8125)"/>
<path d="M0 0 C2.86705356 1.13620271 4.00881099 2.767244 5.859375 5.2109375 C6.47296875 6.00242187 7.0865625 6.79390625 7.71875 7.609375 C9.109375 9.8359375 9.109375 9.8359375 9.109375 12.8359375 C9.769375 12.8359375 10.429375 12.8359375 11.109375 12.8359375 C12.3984375 14.515625 12.3984375 14.515625 13.734375 16.7109375 C14.18039062 17.43023437 14.62640625 18.14953125 15.0859375 18.890625 C16.109375 20.8359375 16.109375 20.8359375 16.109375 22.8359375 C16.769375 22.8359375 17.429375 22.8359375 18.109375 22.8359375 C19.82133592 25.1801906 21.41787715 27.52213327 22.984375 29.9609375 C23.41878906 30.62609375 23.85320312 31.29125 24.30078125 31.9765625 C25.12674971 33.24155924 25.94984745 34.50843873 26.76904297 35.77783203 C28.52755317 38.47805808 30.32193343 41.15477515 32.109375 43.8359375 C32.439375 29.6459375 32.769375 15.4559375 33.109375 0.8359375 C34.429375 0.5059375 35.749375 0.1759375 37.109375 -0.1640625 C38.109375 0.8359375 38.109375 0.8359375 38.22962952 2.96827698 C38.22740891 3.90759567 38.22518829 4.84691437 38.22290039 5.81469727 C38.22282486 6.87572159 38.22274933 7.93674591 38.22267151 9.02992249 C38.21751022 10.1840715 38.21234894 11.33822052 38.20703125 12.52734375 C38.2056163 13.70231918 38.20420135 14.87729462 38.20274353 16.08787537 C38.19712492 19.85808814 38.18456926 23.62824254 38.171875 27.3984375 C38.1668624 29.94726477 38.16229908 32.49609297 38.15820312 35.04492188 C38.14714944 41.30861383 38.13039321 47.57227149 38.109375 53.8359375 C35.24975586 53.97900391 35.24975586 53.97900391 32.109375 53.8359375 C29.86328125 51.546875 29.86328125 51.546875 27.671875 48.2109375 C27.26501465 47.60572266 26.8581543 47.00050781 26.43896484 46.37695312 C25.51358594 44.99854178 24.59685054 43.61430379 23.68701172 42.22558594 C21.91103568 39.53551267 20.09375752 36.87633129 18.26953125 34.21875 C13.1699417 26.7885007 8.1023466 19.33831596 3.109375 11.8359375 C3.08431885 13.0727124 3.0592627 14.3094873 3.03344727 15.58374023 C2.93955247 20.15530463 2.83928871 24.72671068 2.73706055 29.2980957 C2.69364356 31.27982896 2.65197363 33.26160128 2.61206055 35.2434082 C2.55452117 38.0855692 2.49078055 40.92753233 2.42578125 43.76953125 C2.40906876 44.66119492 2.39235626 45.55285858 2.37513733 46.47154236 C2.22324671 52.72206579 2.22324671 52.72206579 1.109375 53.8359375 C-0.540625 53.8359375 -2.190625 53.8359375 -3.890625 53.8359375 C-3.890625 36.3459375 -3.890625 18.8559375 -3.890625 0.8359375 C-1.890625 -0.1640625 -1.890625 -0.1640625 0 0 Z " fill="#503932" transform="translate(262.890625,21.1640625)"/>
<path d="M0 0 C0.69816825 1.31711173 1.36869814 2.64956297 2 4 C2.99 4.33 3.98 4.66 5 5 C5.73046875 7.06640625 5.73046875 7.06640625 6.1875 9.5625 C6.42533203 10.80193359 6.42533203 10.80193359 6.66796875 12.06640625 C6.77753906 12.70449219 6.88710938 13.34257813 7 14 C5.35 14.33 3.7 14.66 2 15 C1.61908203 14.18595703 1.61908203 14.18595703 1.23046875 13.35546875 C0.88628906 12.64003906 0.54210937 11.92460938 0.1875 11.1875 C-0.14894531 10.47980469 -0.48539062 9.77210937 -0.83203125 9.04296875 C-2.53156177 6.07021136 -3.93318617 4.41209054 -7.1640625 3.1640625 C-13.43243145 1.79099121 -18.29690663 1.7942612 -24 5 C-26.29885344 7.10814725 -26.29885344 7.10814725 -27 10 C-26.77752165 13.73093378 -26.77752165 13.73093378 -26 17 C-21.72968151 18.52511375 -17.50929716 19.91194494 -13.0859375 20.9140625 C0.98197575 24.10145252 0.98197575 24.10145252 6 29 C8.35904217 32.89754794 8.39383683 36.51026018 8 41 C6.3338371 46.20675906 3.63405858 48.42463404 -0.9609375 51.03125 C-3.70516102 52.33501903 -5.96358869 52.81409727 -9 53 C-9.68964844 53.05027344 -10.37929688 53.10054687 -11.08984375 53.15234375 C-18.26657457 53.45904165 -23.34988014 51.75007915 -29.3125 47.8125 C-33.57237638 43.35448983 -35 39.12179245 -35 33 C-32.525 32.505 -32.525 32.505 -30 32 C-29.75765625 32.68707031 -29.5153125 33.37414063 -29.265625 34.08203125 C-28.93046875 34.98308594 -28.5953125 35.88414063 -28.25 36.8125 C-27.92515625 37.70582031 -27.6003125 38.59914062 -27.265625 39.51953125 C-25.23412831 43.50101396 -22.82063453 44.70581026 -18.6875 46.1875 C-12.35870055 47.58198123 -7.36187245 47.59088018 -1.6171875 44.47265625 C0.46786082 42.57395283 0.80373332 41.2641212 1.25 38.5 C1.29360356 35.54464752 1.13504696 34.24437069 -0.3125 31.625 C-5.13531667 28.70887829 -10.50159245 27.63796235 -15.921875 26.25390625 C-23.12186704 24.37607049 -29.02131423 22.77850167 -33 16 C-33.9772003 11.18638369 -33.58526524 7.26495208 -30.875 3.125 C-23.16519563 -6.31022802 -9.75573214 -5.87519928 0 0 Z " fill="#4E3932" transform="translate(491,24)"/>
<path d="M0 0 C1.4282618 0.00031703 2.85654759 0.01163717 4.28466797 0.03173828 C5.41242142 0.03598312 5.41242142 0.03598312 6.56295776 0.04031372 C8.96775125 0.05152204 11.37217428 0.07662726 13.77685547 0.10205078 C15.40575635 0.11207976 17.03466305 0.12120576 18.66357422 0.12939453 C22.65981103 0.15146343 26.65577041 0.18599728 30.65185547 0.22705078 C31.71435547 2.10205078 31.71435547 2.10205078 32.65185547 4.22705078 C32.32185547 4.88705078 31.99185547 5.54705078 31.65185547 6.22705078 C21.42185547 6.22705078 11.19185547 6.22705078 0.65185547 6.22705078 C0.65185547 12.16705078 0.65185547 18.10705078 0.65185547 24.22705078 C9.89185547 24.22705078 19.13185547 24.22705078 28.65185547 24.22705078 C29.14685547 26.70205078 29.14685547 26.70205078 29.65185547 29.22705078 C28.65185547 30.22705078 28.65185547 30.22705078 25.96801758 30.34057617 C24.80020752 30.33533936 23.63239746 30.33010254 22.42919922 30.32470703 C21.16914063 30.32148437 19.90908203 30.31826172 18.61083984 30.31494141 C17.27034438 30.30658482 15.92984959 30.29811985 14.58935547 30.28955078 C13.24495605 30.28453738 11.90055487 30.2799742 10.55615234 30.27587891 C7.25470114 30.26404575 3.95327287 30.24610964 0.65185547 30.22705078 C0.65185547 36.82705078 0.65185547 43.42705078 0.65185547 50.22705078 C10.88185547 50.22705078 21.11185547 50.22705078 31.65185547 50.22705078 C31.65185547 51.54705078 31.65185547 52.86705078 31.65185547 54.22705078 C26.54321651 54.25170088 21.43461188 54.26988685 16.32592773 54.28198242 C14.58666379 54.28702282 12.84740411 54.29385508 11.1081543 54.30249023 C8.6135961 54.3145687 6.11909374 54.32028186 3.62451172 54.32470703 C2.84221695 54.32986832 2.05992218 54.3350296 1.25392151 54.34034729 C-0.61381567 54.34054304 -2.48143657 54.28904772 -4.34814453 54.22705078 C-5.9860597 52.58913561 -5.48381996 50.72184994 -5.4934082 48.46362305 C-5.49978806 47.44909561 -5.50616791 46.43456818 -5.51274109 45.38929749 C-5.51385391 44.28517014 -5.51496674 43.18104279 -5.51611328 42.04345703 C-5.52110588 40.35469704 -5.52110588 40.35469704 -5.52619934 38.63182068 C-5.53127347 36.24519257 -5.53360752 33.85855733 -5.53344727 31.47192383 C-5.53563304 27.80880104 -5.55378193 24.14597956 -5.57275391 20.48291016 C-5.57568779 18.16976015 -5.57767262 15.85660871 -5.57861328 13.54345703 C-5.5857988 12.44135391 -5.59298431 11.33925079 -5.60038757 10.20375061 C-5.59731094 9.18607101 -5.59423431 8.16839142 -5.59106445 7.11987305 C-5.59248947 6.22132095 -5.59391449 5.32276886 -5.59538269 4.39698792 C-5.15532335 0.53471556 -3.69487256 0.25056377 0 0 Z " fill="#4B352D" transform="translate(369.34814453125,20.77294921875)"/>
<path d="M0 0 C3.875 0.875 3.875 0.875 5 2 C5.06389376 4.51188296 5.06622595 6.99692291 5.02734375 9.5078125 C5.01468466 11.06770601 5.00232467 12.62760198 4.99023438 14.1875 C4.96552639 16.64949148 4.9376864 19.11135587 4.90405273 21.57324219 C4.87362258 23.94727332 4.85599549 26.321147 4.83984375 28.6953125 C4.82638412 29.42162872 4.8129245 30.14794495 4.79905701 30.89627075 C4.77170119 36.53923289 5.25402144 41.77237219 8.8125 46.3125 C13.36078213 49.82117479 17.2895016 50.58072865 23 50 C26.0146087 49.07285515 28.60893041 48.07399297 31 46 C33.84645777 40.56273089 34.39496876 36.36665585 34.22265625 30.29296875 C34.21366806 29.48636307 34.20467987 28.67975739 34.19541931 27.84870911 C34.16560047 25.29451701 34.11577955 22.74130231 34.0625 20.1875 C34.01468681 17.61591926 33.97140779 15.04457169 33.94029236 12.47273254 C33.92051002 10.87775537 33.8908528 9.28286392 33.85035706 7.6882782 C33.82438137 5.79170734 33.90322551 3.89427835 34 2 C34.66 1.34 35.32 0.68 36 0 C39.53571429 0.53571429 39.53571429 0.53571429 41 2 C41.22121475 6.21646469 41.1857845 10.43919101 41.18530273 14.66088867 C41.18745219 16.7656797 41.20549158 18.86991388 41.22460938 20.97460938 C41.32235482 43.77141219 41.32235482 43.77141219 35.59765625 50.59765625 C30.03983571 55.47603663 23.8094003 56.6232989 16.578125 56.3203125 C10.34228473 55.54555659 5.92554291 52.98650045 2 48 C-2.77969451 39.89758632 -2.55596424 31.55321739 -2.41162109 22.45678711 C-2.37470227 20.04303445 -2.37060543 17.63080482 -2.37109375 15.21679688 C-2.36127505 13.67707004 -2.34962351 12.13735356 -2.3359375 10.59765625 C-2.33371185 9.87892838 -2.33148621 9.1602005 -2.32919312 8.41969299 C-2.25896637 4.74193417 -2.09471457 3.14207185 0 0 Z " fill="#4C3630" transform="translate(211,21)"/>
<path d="M0 0 C4.29019424 1.88072478 7.50143555 4.00143555 10.8125 7.3125 C10.8125 7.9725 10.8125 8.6325 10.8125 9.3125 C11.8025 9.6425 12.7925 9.9725 13.8125 10.3125 C13.8125 11.6325 13.8125 12.9525 13.8125 14.3125 C14.4725 14.3125 15.1325 14.3125 15.8125 14.3125 C17.98527232 22.4603962 17.54432187 29.66061119 13.42578125 37.05078125 C8.99635594 43.26055668 2.89347473 46.03647241 -4.1875 48.3125 C-4.8475 47.6525 -5.5075 46.9925 -6.1875 46.3125 C-4.82625 45.3534375 -4.82625 45.3534375 -3.4375 44.375 C1.4934152 40.26007549 3.18327032 34.74552144 4.75 28.6875 C4.82669518 24.54596042 3.65037879 21.98825759 1.8125 18.3125 C1.4825 17.3225 1.1525 16.3325 0.8125 15.3125 C-4.1375 15.8075 -4.1375 15.8075 -9.1875 16.3125 C-9.5175 17.3025 -9.8475 18.2925 -10.1875 19.3125 C-10.8475 19.3125 -11.5075 19.3125 -12.1875 19.3125 C-12.1875 19.9725 -12.1875 20.6325 -12.1875 21.3125 C-12.8475 21.3125 -13.5075 21.3125 -14.1875 21.3125 C-15.33395518 17.87313446 -14.95961488 16.78701694 -14.1875 13.3125 C-13.44808902 8.33188769 -13.44808902 8.33188769 -13.1875 3.3125 C-14.8375 2.9825 -16.4875 2.6525 -18.1875 2.3125 C-18.1875 1.6525 -18.1875 0.9925 -18.1875 0.3125 C-12.1503543 -3.07155028 -6.34587651 -2.36415007 0 0 Z " fill="#503A32" transform="translate(178.1875,21.6875)"/>
<path d="M0 0 C5.41181639 3.47173127 8.32609619 7.83541631 10 14 C9.505 15.485 9.505 15.485 9 17 C7.68 17 6.36 17 5 17 C4.72027344 16.39671875 4.44054687 15.7934375 4.15234375 15.171875 C0.64026162 8.17029647 -2.30977707 5.56340764 -9.8125 3.0625 C-15.27842074 2.95532508 -20.40785168 4.09512274 -24.87109375 7.375 C-29.34780481 12.01916908 -31.27589396 17.66615292 -32 24 C-31.71137001 31.00583711 -30.4744296 37.51882374 -26 43 C-20.70599337 46.62172879 -15.49663175 49.08277196 -9 48 C-3.76512989 46.4698072 -0.82819789 44.33284922 1.875 39.5625 C3.40555822 36.43954282 4.83621843 33.27974807 6 30 C7.32 30 8.64 30 10 30 C10.34615998 35.65394631 9.43425238 39.03006806 7 44 C6.34 44 5.68 44 5 44 C4.773125 44.5775 4.54625 45.155 4.3125 45.75 C1.97528585 49.75665282 -0.96862483 51.60331724 -5.25 53.25 C-13.12638838 54.82527768 -18.56244507 54.49741412 -25.70703125 50.54296875 C-31.88195101 46.38778425 -36.1416054 40.20517236 -38 33 C-39.16640138 23.16734538 -37.98432792 15.56236332 -33 7 C-32.34 7 -31.68 7 -31 7 C-30.67 6.01 -30.34 5.02 -30 4 C-29.34 4 -28.68 4 -28 4 C-28 3.34 -28 2.68 -28 2 C-18.16244708 -3.15300391 -10.32295641 -4.65286539 0 0 Z " fill="#4F3932" transform="translate(117,23)"/>
<path d="M0 0 C5.52576089 4.10662487 5.52576089 4.10662487 7.5625 6.5625 C7.5625 7.5525 7.5625 8.5425 7.5625 9.5625 C8.2225 9.8925 8.8825 10.2225 9.5625 10.5625 C8.5725 11.0575 8.5725 11.0575 7.5625 11.5625 C6.5725 10.9025 5.5825 10.2425 4.5625 9.5625 C4.5625 8.9025 4.5625 8.2425 4.5625 7.5625 C3.85609375 7.28535156 3.1496875 7.00820313 2.421875 6.72265625 C0.5223205 5.95193537 -1.36380502 5.14721521 -3.234375 4.30859375 C-11.61759142 0.5938087 -17.96166367 -1.78860935 -26.9375 1 C-33.80176038 3.79583639 -40.29361168 8.32739976 -43.4375 15.25 C-46.25488852 24.58259948 -46.00547956 31.8237565 -41.4375 40.5625 C-40.44818159 41.57306869 -39.45047599 42.5756466 -38.4375 43.5625 C-38.4375 44.2225 -38.4375 44.8825 -38.4375 45.5625 C-28.59036901 50.54426367 -19.89330942 54.86306754 -8.73828125 51.828125 C0.62457944 48.41326998 4.78757294 43.84261131 9.36328125 35.18359375 C10.3857518 32.94881284 11.08265821 30.96170896 11.5625 28.5625 C12.2225 28.5625 12.8825 28.5625 13.5625 28.5625 C13.16191369 37.39542815 10.76348681 42.72166405 4.3125 48.75 C-2.15402178 54.21108877 -7.95359757 57.16403883 -16.4375 57.5625 C-17.736875 57.645 -19.03625 57.7275 -20.375 57.8125 C-25.03306336 57.77545775 -29.13668303 56.23503993 -33.4375 54.5625 C-33.4375 53.9025 -33.4375 53.2425 -33.4375 52.5625 C-33.994375 52.48 -34.55125 52.3975 -35.125 52.3125 C-38.17427919 51.32354459 -40.08939963 49.71492534 -42.4375 47.5625 C-42.4375 46.9025 -42.4375 46.2425 -42.4375 45.5625 C-43.0975 45.5625 -43.7575 45.5625 -44.4375 45.5625 C-49.96791601 36.72371012 -52.14571492 28.97604095 -50.4375 18.5625 C-48.83179441 14.28523252 -46.85863726 10.43199615 -44.4375 6.5625 C-43.7775 6.5625 -43.1175 6.5625 -42.4375 6.5625 C-41.7775 5.2425 -41.1175 3.9225 -40.4375 2.5625 C-39.7775 2.5625 -39.1175 2.5625 -38.4375 2.5625 C-38.4375 1.9025 -38.4375 1.2425 -38.4375 0.5625 C-36.85675436 -0.25502303 -35.27278777 -1.06631997 -33.6875 -1.875 C-32.36492187 -2.55369141 -32.36492187 -2.55369141 -31.015625 -3.24609375 C-21.13037793 -7.81427611 -8.78490367 -6.05239003 0 0 Z " fill="#4F3932" transform="translate(186.4375,18.4375)"/>
<path d="M0 0 C0.99 0 1.98 0 3 0 C3 0.66 3 1.32 3 2 C3.66 2.33 4.32 2.66 5 3 C5.8503418 4.83154297 5.8503418 4.83154297 6.69921875 7.2421875 C7.01818115 8.13526611 7.33714355 9.02834473 7.66577148 9.94848633 C8.00294189 10.91423584 8.3401123 11.87998535 8.6875 12.875 C9.40068674 14.87642859 10.11423562 16.87772818 10.828125 18.87890625 C11.18841797 19.8961377 11.54871094 20.91336914 11.91992188 21.96142578 C13.56470436 26.58867777 15.24660296 31.2019368 16.9375 35.8125 C17.23164795 36.62380371 17.5257959 37.43510742 17.82885742 38.27099609 C18.93994225 41.911081 18.93994225 41.911081 21 45 C21.18125931 44.48048264 21.36251862 43.96096527 21.54927063 43.42570496 C23.43712032 38.02027981 25.33698741 32.6191891 27.24389648 27.22045898 C27.95402312 25.20494535 28.66107595 23.18834598 29.36499023 21.1706543 C30.37718898 18.27101519 31.40036964 15.37545752 32.42578125 12.48046875 C32.73840408 11.57725388 33.05102692 10.674039 33.37312317 9.74345398 C33.8232502 8.4824865 33.8232502 8.4824865 34.2824707 7.19604492 C34.54228226 6.45658127 34.80209381 5.71711761 35.06977844 4.95524597 C36.0826029 2.82637579 37.24817713 1.55696475 39 0 C39.99 0.33 40.98 0.66 42 1 C41.56771453 5.92805435 40.84727822 9.59443535 38.80932617 14.15893555 C37.51648711 17.09990067 36.42834731 20.11317143 35.3125 23.125 C34.79469825 24.51448227 34.2764434 25.90379575 33.7578125 27.29296875 C33.34063965 28.41131104 33.34063965 28.41131104 32.91503906 29.55224609 C31.18328043 34.18474665 29.43826025 38.81215139 27.6875 43.4375 C27.33792236 44.36771973 26.98834473 45.29793945 26.62817383 46.25634766 C26.30099365 47.11921387 25.97381348 47.98208008 25.63671875 48.87109375 C25.34498779 49.64380615 25.05325684 50.41651855 24.75268555 51.21264648 C24 53 24 53 23 54 C20.5625 54.1875 20.5625 54.1875 18 54 C15.90044807 51.90044807 15.47288227 50.8718487 14.59765625 48.11328125 C14.34693359 47.33919922 14.09621094 46.56511719 13.83789062 45.76757812 C13.58201172 44.95740234 13.32613281 44.14722656 13.0625 43.3125 C11.28429481 37.73230109 9.36270441 32.35977876 7 27 C6.35790694 25.31892958 5.7317754 23.63163839 5.125 21.9375 C4.79242188 21.01195313 4.45984375 20.08640625 4.1171875 19.1328125 C3.74851562 18.09898438 3.37984375 17.06515625 3 16 C2.54437725 14.72652442 2.08864308 13.4530887 1.6328125 12.1796875 C0.41929587 8.78737627 -0.79106164 5.39394581 -2 2 C-1.34 1.34 -0.68 0.68 0 0 Z " fill="#4F3932" transform="translate(320,21)"/>
<path d="M0 0 C0.83961777 0.00718552 1.67923553 0.01437103 2.54429626 0.02177429 C3.83496254 0.02246162 3.83496254 0.02246162 5.15170288 0.02316284 C6.97162758 0.02618599 8.79154968 0.03407416 10.61143494 0.0464325 C13.40750726 0.06469157 16.20324868 0.0669422 18.99937439 0.06669617 C20.76435123 0.07161114 22.52932581 0.07743937 24.29429626 0.08427429 C25.13593826 0.08538712 25.97758026 0.08649994 26.84472656 0.08764648 C32.73684296 0.13619599 32.73684296 0.13619599 33.85289001 1.25224304 C33.85289001 2.90224304 33.85289001 4.55224304 33.85289001 6.25224304 C27.91289001 6.25224304 21.97289001 6.25224304 15.85289001 6.25224304 C15.85289001 22.09224304 15.85289001 37.93224304 15.85289001 54.25224304 C14.20289001 54.25224304 12.55289001 54.25224304 10.85289001 54.25224304 C9.85289001 53.25224304 9.85289001 53.25224304 9.7326355 51.34768677 C9.73596642 50.09859276 9.73596642 50.09859276 9.73936462 48.82426453 C9.73944016 47.88336472 9.73951569 46.9424649 9.73959351 45.97305298 C9.74475479 44.95014664 9.74991608 43.9272403 9.75523376 42.87333679 C9.75664871 41.83153763 9.75806366 40.78973846 9.75952148 39.71636963 C9.76513922 36.3741321 9.77769471 33.03196047 9.79039001 29.68974304 C9.79540273 27.42997838 9.79996603 25.17021268 9.80406189 22.91044617 C9.81511441 17.35768623 9.83239092 11.80497582 9.85289001 6.25224304 C4.24289001 6.25224304 -1.36710999 6.25224304 -7.14710999 6.25224304 C-7.47710999 4.93224304 -7.80710999 3.61224304 -8.14710999 2.25224304 C-5.50689459 -0.38797236 -3.59218059 0.01421582 0 0 Z " fill="#533830" transform="translate(48.14710998535156,20.747756958007813)"/>
<path d="M0 0 C2 2 2 2 2.21484375 5.9609375 C2.09530331 11.24822155 1.37102813 16.4052928 0.5625 21.625 C0.42779297 22.52734375 0.29308594 23.4296875 0.15429688 24.359375 C-0.10717112 26.10929741 -0.37433621 27.8583807 -0.64794922 29.60644531 C-0.86936322 31.11181481 -1.06269699 32.62185182 -1.21533203 34.13574219 C-1.41015625 36.0234375 -1.41015625 36.0234375 -2 39 C-2.99 39.66 -3.98 40.32 -5 41 C-11.34234339 36.42761291 -14.90599392 31.08428936 -16.9375 23.5 C-17.06982563 16.08976477 -15.17850526 10.0886791 -11 4 C-7.43225761 0.33836965 -5.11116926 -0.68148924 0 0 Z " fill="#503B33" transform="translate(159,25)"/>
<path d="M0 0 C1.32 0.33 2.64 0.66 4 1 C4 18.49 4 35.98 4 54 C2.35 54 0.7 54 -1 54 C-2.63791517 52.36208483 -2.13567543 50.49479916 -2.14526367 48.23657227 C-2.15164352 47.22204483 -2.15802338 46.2075174 -2.16459656 45.1622467 C-2.16570938 44.05811935 -2.1668222 42.953992 -2.16796875 41.81640625 C-2.17296135 40.12764626 -2.17296135 40.12764626 -2.17805481 38.4047699 C-2.18312894 36.01814179 -2.18546299 33.63150655 -2.18530273 31.24487305 C-2.18748851 27.58175026 -2.2056374 23.91892878 -2.22460938 20.25585938 C-2.22754326 17.94270937 -2.22952809 15.62955792 -2.23046875 13.31640625 C-2.23765427 12.21430313 -2.24483978 11.11220001 -2.25224304 9.97669983 C-2.24916641 8.95902023 -2.24608978 7.94134064 -2.24291992 6.89282227 C-2.24434494 5.99427017 -2.24576996 5.09571808 -2.24723816 4.16993713 C-2 2 -2 2 0 0 Z " fill="#4B3A33" transform="translate(311,21)"/>
<path d="M0 0 C2.4375 1 2.4375 1 4.25 3.125 C6.59635393 8.80564635 5.61853941 13.70440408 3.359375 19.203125 C1.44340015 22.93765226 -0.6298176 24.68910587 -4.5625 26 C-8.58180192 21.77458003 -10.66396394 19.08783617 -10.5625 13 C-6.99542683 0 -6.99542683 0 0 0 Z " fill="#503B33" transform="translate(173.5625,39)"/>
<path d="M0 0 C1.98 0.495 1.98 0.495 4 1 C4 18.49 4 35.98 4 54 C2.35 54 0.7 54 -1 54 C-1.02526648 46.47030348 -1.04283141 38.9406178 -1.05493164 31.41088867 C-1.0599737 28.84708243 -1.06680714 26.28327909 -1.07543945 23.71948242 C-1.08751064 20.04344979 -1.09322942 16.36745502 -1.09765625 12.69140625 C-1.10281754 11.53725723 -1.10797882 10.38310822 -1.11329651 9.19398499 C-1.11337204 8.13296066 -1.11344757 7.07193634 -1.11352539 5.97875977 C-1.115746 5.03944107 -1.11796661 4.10012238 -1.12025452 3.13233948 C-1 1 -1 1 0 0 Z " fill="#47352E" transform="translate(505,21)"/>
<path d="M0 0 C3.72617422 1.24205807 5.39291457 3.1110675 8 6 C8 6.66 8 7.32 8 8 C4.625 8.125 4.625 8.125 1 8 C0.34 7.34 -0.32 6.68 -1 6 C-0.625 2.875 -0.625 2.875 0 0 Z " fill="#4B352F" transform="translate(161,62)"/>
<path d="M0 0 C0.66 0 1.32 0 2 0 C1.88541307 1.43836751 1.75790884 2.87570966 1.625 4.3125 C1.55539063 5.11300781 1.48578125 5.91351563 1.4140625 6.73828125 C1 9 1 9 -1 12 C-1.99 11.34 -2.98 10.68 -4 10 C-2.68 6.7 -1.36 3.4 0 0 Z " fill="#4E312B" transform="translate(198,47)"/>
</svg>
