<svg width="30" height="30" viewBox="0 0 30 30" fill="none" xmlns="http://www.w3.org/2000/svg">
<g id="box" clip-path="url(#clip0_3870_49847)">
<path id="Slected" fill-rule="evenodd" clip-rule="evenodd" d="M15 30C6.78571 30 0 23.2143 0 15C0 6.78571 6.77419 0 14.9885 0C23.2028 0 30 6.78571 30 15C30 23.2143 23.2143 30 15 30ZM13.1567 22.5346C13.5829 22.5346 13.9516 22.3387 14.2281 21.9124L21.97 9.78111C22.1429 9.52765 22.2926 9.21659 22.2926 8.94009C22.2926 8.32949 21.7512 7.94931 21.1866 7.94931C20.8525 7.94931 20.5184 8.14516 20.265 8.53687L13.0991 19.9309L9.28571 15.1498C8.98617 14.7696 8.67511 14.6313 8.30645 14.6313C7.74194 14.6313 7.26959 15.0806 7.26959 15.6912C7.26959 15.9793 7.38479 16.2903 7.58065 16.5323L12.0276 21.924C12.3848 22.3618 12.7304 22.5346 13.1567 22.5346Z" fill="#523D34"/>
</g>
<defs>
<clipPath id="clip0_3870_49847">
<rect width="30" height="30" fill="white"/>
</clipPath>
</defs>
</svg>
