<svg width="15" height="17" viewBox="0 0 15 17" fill="none" xmlns="http://www.w3.org/2000/svg">
<path d="M14.6179 4.59912C13.7048 4.59912 12.8623 4.29662 12.1857 3.78631C11.4098 3.20131 10.8523 2.34318 10.6554 1.35412C10.6066 1.10975 10.5804 0.857559 10.5779 0.599121H7.96945V7.72662L7.96632 11.6307C7.96632 12.6744 7.28663 13.5594 6.34445 13.8707C6.07101 13.961 5.7757 14.0038 5.4682 13.9869C5.0757 13.9654 4.70788 13.8469 4.3882 13.6557C3.70788 13.2488 3.24663 12.5107 3.23413 11.6663C3.21445 10.3466 4.28132 9.27068 5.60007 9.27068C5.86038 9.27068 6.11038 9.31318 6.34445 9.39037V7.44225V6.74193C6.09757 6.70537 5.84632 6.68631 5.59226 6.68631C4.14882 6.68631 2.79882 7.28631 1.83382 8.36725C1.10445 9.18412 0.666947 10.2263 0.599447 11.3191C0.511009 12.7547 1.03632 14.1194 2.05507 15.1263C2.20476 15.2741 2.36195 15.4113 2.52632 15.5379C3.39976 16.2101 4.46757 16.5744 5.59226 16.5744C5.84632 16.5744 6.09757 16.5557 6.34445 16.5191C7.39507 16.3635 8.36445 15.8826 9.12945 15.1263C10.0694 14.1972 10.5888 12.9638 10.5944 11.651L10.581 5.821C11.0294 6.16693 11.5198 6.45318 12.046 6.67537C12.8644 7.02068 13.7323 7.19568 14.6254 7.19537V5.30131V4.5985C14.626 4.59912 14.6185 4.59912 14.6179 4.59912Z" fill="#523D34"/>
</svg>
