<svg xmlns="http://www.w3.org/2000/svg" width="4315" height="692" viewBox="0 0 4315 692" version="1.1"><path d="" stroke="none" fill="#583c34" fill-rule="evenodd"/><path d="M 1270 141.013 C 1246.492 142.131, 1227.909 147.036, 1205.339 158.081 C 1168.896 175.914, 1137.895 204.499, 1117.434 239.136 C 1114.392 244.286, 1110.158 252.100, 1108.026 256.500 C 1103.881 265.054, 1094.942 292.766, 1092.567 304.428 C 1084.729 342.906, 1090.222 383.006, 1108.465 420.500 C 1136.368 477.845, 1189.890 518.954, 1254.500 532.665 C 1266.692 535.252, 1269.055 535.424, 1292.500 535.442 C 1313.997 535.457, 1319.308 535.144, 1330.403 533.209 C 1357.438 528.492, 1376.989 522.531, 1394.500 513.665 C 1411.941 504.836, 1434 489.428, 1434 486.075 C 1434 484.803, 1439.893 480, 1441.455 480 C 1442.876 480, 1449.318 472.672, 1455.522 464 C 1457.686 460.975, 1462.616 454.859, 1466.478 450.409 C 1474.984 440.608, 1486.271 419.533, 1491.399 403.878 C 1496.026 389.754, 1500.166 369.184, 1499.797 362.157 L 1499.500 356.500 1497.396 366.500 C 1491.364 395.163, 1480.155 421.392, 1464.705 443 C 1455.766 455.501, 1439.828 472.283, 1429 480.596 C 1423.775 484.608, 1417.250 489.633, 1414.500 491.764 C 1411.750 493.895, 1401.393 499.561, 1391.485 504.356 C 1375.636 512.027, 1371.371 513.613, 1355.997 517.558 C 1331.487 523.847, 1318.942 525.327, 1295.500 524.696 C 1268.793 523.977, 1248.268 519.843, 1224.944 510.485 C 1164.049 486.054, 1120.434 434.427, 1107.806 371.834 C 1105.830 362.038, 1105.523 357.514, 1105.545 338.500 C 1105.567 319.434, 1105.873 315.100, 1107.842 306 C 1122.108 240.053, 1170.154 186.193, 1233.540 165.090 C 1271.361 152.498, 1308.621 151.959, 1350.140 163.401 C 1375.584 170.414, 1395.787 179.430, 1412 191.009 C 1428.365 202.697, 1440 207.945, 1440 203.640 C 1440 199.817, 1429.963 188.446, 1418.147 178.881 C 1401.701 165.569, 1385.843 157.580, 1356.805 147.976 C 1344.590 143.936, 1340.011 142.979, 1343 145.090 C 1344.128 145.887, 1343.631 146.009, 1341 145.581 C 1321.390 142.396, 1296.088 139.804, 1288.105 140.162 C 1286.122 140.251, 1277.975 140.634, 1270 141.013 M 1291 186.677 C 1277.808 187.413, 1248.773 192.939, 1247.530 194.951 C 1247.265 195.379, 1249.965 195.964, 1253.530 196.250 C 1269.973 197.570, 1284.053 211.085, 1285.651 227.083 C 1286.029 230.863, 1284.334 245.443, 1280.041 275.342 C 1276.657 298.904, 1274.026 318.815, 1274.194 319.587 C 1274.362 320.359, 1277.178 317.357, 1280.451 312.916 C 1298.631 288.254, 1325.797 274.197, 1348.148 277.887 C 1359.703 279.795, 1369.101 284.845, 1378 293.930 C 1386.687 302.797, 1391.040 309.700, 1395.589 321.824 C 1401.275 336.977, 1402.507 345.097, 1402.444 367 C 1402.398 383.171, 1402.014 388.232, 1400.196 396.648 C 1390.613 441.005, 1363.469 479.847, 1332.474 493.554 C 1329.326 494.946, 1326.972 496.305, 1327.242 496.575 C 1328.123 497.457, 1347.085 492.902, 1357.408 489.330 C 1379.775 481.589, 1400.275 469.208, 1416.902 453.398 C 1442.092 429.446, 1456.670 403.368, 1463.227 370.524 C 1466.354 354.861, 1466.300 329.046, 1463.108 314 C 1455.604 278.630, 1436.948 247.675, 1409.500 225.050 C 1388.750 207.947, 1362.373 195.372, 1336 190.011 C 1327.121 188.206, 1303.320 185.771, 1298.605 186.185 C 1297.447 186.287, 1294.025 186.508, 1291 186.677 M 862.500 188.031 C 783.105 194.611, 727.604 253.175, 718.006 340.500 C 716.599 353.297, 716.822 379.509, 718.452 393 C 727.677 469.362, 772.314 523.579, 838.500 538.812 C 858.649 543.450, 889.104 544.250, 906 540.585 C 948.809 531.301, 983.505 503.842, 1003.979 463.042 C 1012.017 447.024, 1018.451 425.469, 1020.484 407.750 L 1021.144 402 1010.252 402 L 999.360 402 998.194 410.758 C 994.083 441.634, 979.763 469.675, 957.086 491.255 C 935.102 512.176, 910.703 522.646, 881.500 523.689 C 828.673 525.576, 783.505 498.808, 758.513 450.802 C 745.513 425.831, 739 397.300, 739 365.327 C 739 291.226, 775.428 233.121, 834.144 213.567 C 861.270 204.533, 891.318 204.205, 918.374 212.646 C 943.815 220.584, 966.953 238.343, 979.614 259.649 C 984.782 268.346, 990.479 282.589, 992.054 290.750 L 993.260 297 1004.244 297 L 1015.227 297 1014.516 292.261 C 1012.653 279.838, 1003.670 258.131, 994.522 243.948 C 968.449 203.524, 920.517 183.223, 862.500 188.031 M 3311.668 188.062 C 3293.941 189.634, 3275.870 194.566, 3261.500 201.752 C 3236.873 214.068, 3222.472 231.040, 3215.895 255.500 C 3212.845 266.842, 3212.819 289.069, 3215.844 300.300 C 3221.494 321.285, 3235.400 336.843, 3258.500 348.024 C 3275.547 356.276, 3292.591 361.188, 3333 369.495 C 3390.442 381.304, 3411.454 389.286, 3427.572 405.421 C 3439.948 417.808, 3444.679 431.245, 3443.760 451.397 C 3442.729 473.995, 3432.632 492.525, 3414.582 504.943 C 3407.786 509.620, 3392.718 516.530, 3384 518.970 C 3350.454 528.358, 3303.529 524.219, 3273.500 509.224 C 3242.773 493.880, 3226.924 469.236, 3225.283 434.250 L 3224.709 422 3213.735 422 L 3202.761 422 3203.454 432.750 C 3205.524 464.865, 3214.651 486.836, 3233.914 506.074 C 3257.488 529.616, 3290.495 541.350, 3337.007 542.722 C 3372.276 543.762, 3397.528 538.222, 3422.408 523.987 C 3443.855 511.716, 3459.309 490.755, 3464.159 467.359 C 3466.841 454.418, 3466.313 433.494, 3463.014 422.016 C 3454.026 390.741, 3428.458 371.721, 3378.500 359.147 C 3374.100 358.039, 3358.350 354.599, 3343.500 351.503 C 3291.835 340.730, 3274.908 335.145, 3258.359 323.409 C 3242.240 311.978, 3234.007 294.434, 3235.345 274.363 C 3237.063 248.570, 3249.551 230.230, 3273.601 218.179 C 3308.212 200.836, 3362.445 203.031, 3396.819 223.167 C 3399.943 224.998, 3406.796 230.771, 3412.047 235.998 C 3420.256 244.168, 3422.243 246.832, 3426.223 255 C 3430.675 264.137, 3435 278.460, 3435 284.065 C 3435 285.542, 3435.281 288.156, 3435.625 289.875 L 3436.250 293 3447.078 293 L 3457.906 293 3457.392 287.750 C 3454.470 257.906, 3445.273 237.133, 3427.343 219.880 C 3407.885 201.156, 3380.843 190.845, 3343.779 188.018 C 3329.127 186.900, 3324.702 186.906, 3311.668 188.062 M 198 364.970 L 198 535.099 278.250 534.770 C 356.970 534.448, 358.704 534.399, 369.208 532.193 C 400.779 525.562, 422.653 512.985, 436.498 493.500 C 447.045 478.657, 451.057 465.733, 451.747 444.385 C 452.475 421.861, 449.406 409.220, 439.481 393.869 C 429.068 377.762, 408.808 363.485, 389.324 358.525 C 385.571 357.569, 381.825 356.570, 381 356.304 C 380.175 356.038, 382.704 354.996, 386.619 353.988 C 411.560 347.572, 431.920 327.590, 438.745 302.831 C 441.219 293.858, 441.132 270.219, 438.590 260.500 C 431.832 234.668, 416.210 216.364, 392 205.912 C 383.361 202.183, 371.739 198.913, 360 196.909 C 355.807 196.193, 325.908 195.629, 275.750 195.320 L 198 194.841 198 364.970 M 462 204.500 L 462 214 521.500 214 L 581 214 581 374.500 L 581 535 592 535 L 603 535 603 374.500 L 603 214 663 214 L 723 214 723 204.500 L 723 195 592.500 195 L 462 195 462 204.500 M 1577.241 313.750 C 1577.551 432.216, 1577.557 432.527, 1579.799 443.810 C 1593.163 511.068, 1633.091 542.899, 1704.199 542.982 C 1778.696 543.069, 1821.535 509.537, 1833.067 442.111 C 1836.402 422.612, 1836.971 401.439, 1836.986 296.250 L 1837 195 1826.058 195 L 1815.116 195 1814.730 308.250 C 1814.390 408.208, 1814.148 422.729, 1812.666 431.970 C 1807.137 466.454, 1795.850 488.797, 1776.560 503.438 C 1759.134 516.664, 1739.986 522.620, 1711.500 523.675 C 1686.808 524.589, 1670.147 521.674, 1653.347 513.502 C 1628.040 501.192, 1612.139 479.941, 1603.966 447.507 C 1598.683 426.540, 1598.715 427.331, 1598.288 307.250 L 1597.890 195 1587.410 195 L 1576.930 195 1577.241 313.750 M 1902 365 L 1902 535 1912.997 535 L 1923.994 535 1924.247 379.042 L 1924.500 223.085 2031.612 378.792 L 2138.724 534.500 2151.862 534.779 L 2165 535.058 2165 365.029 L 2165 195 2154.003 195 L 2143.006 195 2142.753 350.215 L 2142.500 505.430 2035.638 350.215 L 1928.777 195 1915.388 195 L 1902 195 1902 365 M 2234 365 L 2234 535 2245 535 L 2256 535 2256 365 L 2256 195 2245 195 L 2234 195 2234 365 M 2292.156 195.888 C 2292.345 196.413, 2320.850 272.927, 2355.500 365.919 L 2418.500 534.997 2431.163 534.998 L 2443.825 535 2446.377 528.250 C 2470.598 464.192, 2570 197.263, 2570 196.279 C 2570 195.216, 2567.740 194.992, 2559.274 195.216 L 2548.548 195.500 2490.794 353.500 C 2459.029 440.400, 2432.682 512.547, 2432.244 513.827 C 2431.621 515.649, 2418.843 481.369, 2373.347 355.827 L 2315.246 195.500 2303.529 195.217 C 2296.402 195.046, 2291.946 195.308, 2292.156 195.888 M 2595 365 L 2595 535 2710.500 535 L 2826 535 2826 525.500 L 2826 516 2721.500 516 L 2617 516 2617 442 L 2617 368 2714.500 368 L 2812 368 2812 358.500 L 2812 349 2714.500 349 L 2617 349 2617 281.500 L 2617 214 2720.500 214 L 2824 214 2824 204.500 L 2824 195 2709.500 195 L 2595 195 2595 365 M 2882 364.923 L 2882 535 2893 535 L 2904 535 2904 458 L 2904 381 2968.776 381 C 3007.342 381, 3036.981 381.419, 3042.026 382.036 C 3079.036 386.561, 3098.277 404.413, 3102.907 438.524 C 3103.503 442.911, 3104.202 460.675, 3104.461 478 C 3104.952 510.786, 3105.868 519.663, 3109.776 529.500 L 3111.762 534.500 3124.327 534.779 L 3136.892 535.059 3134.428 530.650 C 3128.880 520.723, 3127.365 510.260, 3126.515 476 C 3126.181 462.525, 3125.461 447, 3124.915 441.500 C 3120.793 399.978, 3102.463 378.128, 3066.260 371.583 C 3061.992 370.811, 3059.714 370.139, 3061.198 370.090 C 3065.867 369.934, 3080.198 364.985, 3087.924 360.859 C 3113.092 347.420, 3127.749 324.854, 3131.143 294.319 C 3132.106 285.654, 3132.125 280.704, 3131.229 272.319 C 3129.698 257.989, 3127.878 251.309, 3122.560 240.500 C 3111.066 217.138, 3088.862 203.265, 3053.500 197.348 C 3044.893 195.908, 3032.255 195.617, 2962.750 195.260 L 2882 194.845 2882 364.923 M 3512 365 L 3512 535 3523 535 L 3534 535 3534 365 L 3534 195 3523 195 L 3512 195 3512 365 M 3581 204.496 L 3581 214 3640.500 214 L 3700 214 3700 374.500 L 3700 535 3711 535 L 3722 535 3722 374.500 L 3722 214 3778.797 214 L 3835.594 214 3897.265 303.750 L 3958.936 393.500 3958.968 464.250 L 3959 535 3970 535 L 3981 535 3981.033 463.750 L 3981.066 392.500 4049.033 294.279 C 4086.415 240.257, 4117 195.820, 4117 195.529 C 4117 195.238, 4111.488 195.022, 4104.750 195.049 L 4092.500 195.097 4031.644 284.097 C 3998.173 333.046, 3970.404 372.962, 3969.935 372.798 C 3969.466 372.634, 3941.902 332.675, 3908.680 284 L 3848.278 195.500 3714.639 195.246 L 3581 194.993 3581 204.496 M 1441.910 202.832 C 1442.450 203.840, 1443.590 205.245, 1444.445 205.955 C 1445.300 206.664, 1446 207.681, 1446 208.214 C 1446 208.747, 1447.804 211.280, 1450.008 213.842 C 1458.324 223.505, 1467.564 234.616, 1469.278 237.014 L 1471.055 239.500 1470.425 237 C 1469.682 234.052, 1469.357 233.572, 1461.321 223.587 C 1446.974 205.760, 1438.798 197.017, 1441.910 202.832 M 1205.412 214.827 C 1183.544 229.014, 1163.044 252.129, 1150.815 276.388 C 1145.526 286.881, 1139.562 305.169, 1137.408 317.500 C 1135.101 330.705, 1135.091 355.053, 1137.385 367.736 C 1143.481 401.421, 1158.273 428.690, 1183.637 453 C 1193.406 462.363, 1207.427 472.906, 1208.578 471.755 C 1209.836 470.498, 1243.121 237.410, 1242.710 232.740 C 1242.239 227.385, 1240.105 224.403, 1235.282 222.362 C 1228.855 219.641, 1220.862 221.323, 1214.985 226.633 C 1210.540 230.648, 1209.602 233.138, 1207.971 245.250 L 1206.793 254 1201.897 254 C 1196.164 254, 1196.334 254.660, 1198.547 241 C 1200.271 230.356, 1202.930 223.797, 1208.415 216.652 C 1210.462 213.985, 1211.954 211.621, 1211.731 211.397 C 1211.507 211.174, 1208.664 212.717, 1205.412 214.827 M 220 281.500 L 220 349 282.250 348.994 C 348.540 348.988, 355.412 348.595, 370.500 343.954 C 401.149 334.525, 418.965 311.015, 418.965 280 C 418.965 261.579, 413.952 248.768, 402.095 236.892 C 393.052 227.833, 382.735 222.339, 367.513 218.478 C 352.928 214.778, 337.073 214.005, 275.750 214.002 L 220 214 220 281.500 M 2904 288.056 L 2904 362.112 2973.250 361.731 C 3049.362 361.312, 3048.214 361.397, 3065.144 354.879 C 3086.588 346.623, 3101.212 330.404, 3107.155 308.287 C 3109.737 298.679, 3110.289 275.709, 3108.148 267 C 3105.472 256.117, 3099.386 245.289, 3091.529 237.432 C 3078.594 224.497, 3059.801 217.122, 3034.423 215.019 C 3027.865 214.476, 2995.838 214.025, 2963.250 214.016 L 2904 214 2904 288.056 M 1319.882 310.381 C 1307.249 314.895, 1292.044 332.533, 1283.978 352.028 C 1275.390 372.787, 1271.660 401.420, 1275.051 420.566 C 1279.908 447.997, 1294.349 464.214, 1310.132 459.965 C 1330.785 454.403, 1348.387 428.264, 1356.165 391.604 C 1359.253 377.051, 1359.260 354.048, 1356.179 341.626 C 1350.093 317.082, 1335.729 304.718, 1319.882 310.381 M 220 442 L 220 516 282.750 515.997 C 346.950 515.994, 356.610 515.550, 370.687 511.951 C 387.981 507.530, 400.272 500.881, 411.108 490.082 C 424.273 476.963, 430.222 461.359, 430.202 440 C 430.164 398.398, 403.393 374.375, 351.144 369.054 C 345.120 368.441, 315.523 368, 280.394 368 L 220 368 220 442 M 1253.554 458.148 C 1253.237 459.992, 1252.278 466, 1251.423 471.500 C 1250.568 477, 1249.016 483.430, 1247.973 485.789 L 1246.078 490.079 1248.789 491.130 C 1254.401 493.305, 1272.466 496.905, 1283.458 498.038 C 1294.677 499.195, 1299.621 498.984, 1295.500 497.525 C 1288.509 495.048, 1278.687 489.392, 1273.808 485.031 C 1267.300 479.214, 1260.146 468.982, 1256.992 460.980 C 1254.288 454.120, 1254.250 454.088, 1253.554 458.148" stroke="none" fill="#543c34" fill-rule="evenodd"/></svg>