<svg width="39" height="38" viewBox="0 0 39 38" fill="none" xmlns="http://www.w3.org/2000/svg">
<g id="Layer 2">
<g id="Group">
<path id="Vector" d="M24.6102 23.8412H13.9406C12.5409 23.8412 11.4062 22.7066 11.4062 21.3069V15.1251C11.4062 13.7255 12.5409 12.5908 13.9406 12.5908H24.6102C26.0098 12.5908 27.1445 13.7255 27.1445 15.1251V21.3069C27.1445 22.7066 26.0098 23.8412 24.6102 23.8412Z" fill="white"/>
<path id="Vector_2" d="M24.6141 12.5908H23.6641C25.0632 12.5908 26.1974 13.7259 26.1974 15.1261V21.3059C26.1974 22.7061 25.0632 23.8412 23.6641 23.8412H24.614C26.0132 23.8412 27.1474 22.7061 27.1474 21.3059V15.1261C27.1474 13.7259 26.0132 12.5908 24.6141 12.5908Z" fill="white"/>
<path id="Vector_3" d="M17.3906 16.0152V20.4234C17.3906 20.7168 17.7108 20.8977 17.9618 20.7462L21.6129 18.5421C21.8557 18.3955 21.8557 18.0431 21.6129 17.8965L17.9618 15.6924C17.7108 15.5409 17.3906 15.7218 17.3906 16.0152Z" fill="#614E46"/>
</g>
</g>
</svg>
