<svg width="33" height="32" viewBox="0 0 33 32" fill="none" xmlns="http://www.w3.org/2000/svg">
<g clip-path="url(#clip0_1878_131476)">
<path d="M9.78564 15.5996V19.7596L9.94564 19.9996L10.1056 19.6796L11.7056 16.9597L14.1056 14.9596L16.3456 14.0796L19.7056 13.0396L22.9056 13.4396V18.0796L31.4656 9.43965L22.9056 0.639648V5.83965H21.2256L17.1456 6.71965L13.7056 8.79965L11.3056 11.9996L9.78564 15.5996Z" fill="#523D34"/>
<path d="M28.9995 32.0002H4.33297C2.31029 32.0002 0.666504 30.3562 0.666504 28.3338V9.00045C0.666504 6.97777 2.31029 5.33398 4.33297 5.33398H8.99967C9.55167 5.33398 9.99966 5.78198 9.99966 6.33397C9.99966 6.88597 9.55167 7.33396 8.99967 7.33396H4.33297C3.41428 7.33396 2.66648 8.08176 2.66648 9.00045V28.3338C2.66648 29.2522 3.41428 30.0002 4.33297 30.0002H28.9995C29.9182 30.0002 30.6662 29.2522 30.6662 28.3338V17.0004C30.6662 16.4484 31.1142 16.0004 31.6662 16.0004C32.2182 16.0004 32.6662 16.4484 32.6662 17.0004V28.3338C32.6662 30.3562 31.0222 32.0002 28.9995 32.0002Z" fill="#523D34"/>
<path d="M9.66503 21.3162C9.59179 21.3162 9.5183 21.3081 9.44506 21.2893C8.99316 21.1841 8.6665 20.7974 8.6665 20.3335V18.3336C8.6665 11.1657 14.4985 5.33369 21.6664 5.33369H21.9996V1.00024C21.9996 0.592281 22.2477 0.225585 22.6263 0.0722666C23.0035 -0.0795874 23.4369 0.0122085 23.7196 0.306883L32.3862 9.3068C32.7595 9.69351 32.7595 10.3068 32.3862 10.6935L23.7196 19.6934C23.4369 19.9881 23.0008 20.0789 22.6263 19.928C22.2477 19.7747 21.9996 19.408 21.9996 19.0001V14.6668H20.4157C16.2211 14.6668 12.4516 16.9974 10.5771 20.7481C10.405 21.0948 10.0437 21.3162 9.66503 21.3162ZM21.6664 7.33367C16.0663 7.33367 11.4292 11.5402 10.7505 16.96C13.1743 14.2562 16.6503 12.6669 20.4157 12.6669H22.9996C23.5516 12.6669 23.9996 13.1149 23.9996 13.6669V16.5201L30.2781 10.0001L23.9996 3.48019V6.33368C23.9996 6.88568 23.5516 7.33367 22.9996 7.33367H21.6664Z" fill="#523D34"/>
</g>
<defs>
<clipPath id="clip0_1878_131476">
<rect width="32" height="32" fill="white" transform="translate(0.666504)"/>
</clipPath>
</defs>
</svg>
